<svg id="Layer_1" data-name="Layer 1" xmlns="http://www.w3.org/2000/svg" viewBox="0 0 357.86 171"><text x="-0.14"/><path d="M260.61,0c-47.38,19.25-94.06,137-84.39,162.86,2.21,5.92,2.22,3,4.44,8.14.06-6.56,2.22-20.73,10.36-29.61.6-.66-5.93-6.29-5.18-5.92,4.49,1.91,7.86-2.17,11.38-4.84l-6.89-4.12v-.34c5.42-2.37,8.41-4.73,12.55-9.21,2-2.17,5.92-8.14,4.44-7.4-3.57,1.78-7.12-.08-11.65-.88,10-6.13,16-12.06,17.57-15.41,6.66-14.06,5.18-20,11.84-37S260.61,0,260.61,0Z" transform="translate(-0.14)"/><path d="M40.11,99v2.42H30.69V98.52c0-8-3.05-12.73-10.18-12.73S10.32,90.5,10.32,98.4c0,20,29.92,21.89,29.92,47,0,13.5-6.49,22.28-20.12,22.28s-20-8.78-20-22.28v-5.09H9.43v5.6c0,8,3.31,12.74,10.44,12.74s10.44-4.72,10.44-12.74C30.31,126,.52,124.11.52,99c0-13.75,6.36-22.28,19.73-22.28S40.11,85.54,40.11,99Z" transform="translate(-0.14)"/><path d="M58.82,77.65v89.11H48.89V77.65Z" transform="translate(-0.14)"/><path d="M101.85,166.64H92.31L77.54,95.72v71H68.88V77.65H82.76L97.4,148.81l14.13-71.16h13.88v89.11H116V95.09Z" transform="translate(-0.14)"/><path d="M155.07,77.65c14,0,20,8.27,20,21.77v10.69c0,14.13-6.62,21.52-20.76,21.52h-8.78v35.13h-9.93V77.65Zm-.77,45.06c7.39,0,10.95-3.43,10.95-12V98.91c0-8.15-2.93-12.23-10.18-12.23h-9.55v36Z" transform="translate(-0.14)"/><path d="M257.8,117.11V126H236v31.7h26.74v9H226.1V77.65h36.67v9H236v30.43Z" transform="translate(-0.14)"/><path d="M310.51,99v2.42h-9.42V98.52c0-8-3.06-12.73-10.19-12.73S280.72,90.5,280.72,98.4c0,20,29.91,21.89,29.91,47,0,13.5-6.49,22.28-20.11,22.28s-20-8.78-20-22.28v-5.09h9.3v5.6c0,8,3.31,12.74,10.43,12.74s10.44-4.72,10.44-12.74c0-19.86-29.79-21.77-29.79-46.85,0-13.75,6.37-22.28,19.74-22.28S310.51,85.54,310.51,99Z" transform="translate(-0.14)"/><path d="M357.86,99v2.42h-9.42V98.52c0-8-3.05-12.73-10.18-12.73S328.07,90.5,328.07,98.4c0,20,29.92,21.89,29.92,47,0,13.5-6.49,22.28-20.11,22.28s-20-8.78-20-22.28v-5.09h9.29v5.6c0,8,3.31,12.74,10.44,12.74s10.44-4.72,10.44-12.74c0-19.86-29.79-21.77-29.79-46.85,0-13.75,6.37-22.28,19.73-22.28S357.86,85.54,357.86,99Z" transform="translate(-0.14)"/></svg>